<svg xmlns="http://www.w3.org/2000/svg" xmlns:xlink="http://www.w3.org/1999/xlink" width="500" zoomAndPan="magnify" viewBox="0 0 375 374.999991" height="500" preserveAspectRatio="xMidYMid meet" version="1.0"><defs><clipPath id="ec70b82131"><path d="M 19.105469 33.417969 L 355.855469 33.417969 L 355.855469 341.667969 L 19.105469 341.667969 Z M 19.105469 33.417969 " clip-rule="nonzero"/></clipPath><clipPath id="f1bcc2872c"><path d="M 30.734375 88.222656 L 134.234375 88.222656 L 134.234375 191.722656 L 30.734375 191.722656 Z M 30.734375 88.222656 " clip-rule="nonzero"/></clipPath></defs><rect x="-37.5" width="450" fill="#ffffff" y="-37.499999" height="449.999989" fill-opacity="1"/><rect x="-37.5" width="450" fill="#ffffff" y="-37.499999" height="449.999989" fill-opacity="1"/><g clip-path="url(#ec70b82131)"><path fill="#1a87ef" d="M 355.648438 63.152344 L 355.648438 140.570312 L 244.835938 140.570312 L 244.835938 341.566406 L 163.652344 341.566406 L 163.652344 132.132812 L 180.53125 132.132812 L 180.53125 324.6875 L 227.949219 324.6875 L 227.949219 123.691406 L 338.761719 123.691406 L 338.761719 80.035156 L 328.875 80.035156 L 328.875 63.152344 Z M 306.171875 93.953125 L 195.359375 93.953125 L 195.359375 294.949219 L 186.355469 294.949219 L 186.355469 311.832031 L 212.238281 311.832031 L 212.238281 110.84375 L 323.054688 110.84375 L 323.054688 33.417969 L 19.355469 33.417969 L 19.355469 105.351562 L 36.238281 105.351562 L 36.238281 50.296875 L 306.164062 50.296875 L 306.164062 93.953125 Z M 157.832031 294.949219 L 147.941406 294.949219 L 147.941406 102.398438 L 131.0625 102.398438 L 131.0625 311.839844 L 157.839844 311.839844 L 157.839844 294.949219 Z M 300.351562 63.152344 L 51.953125 63.152344 L 51.953125 135.085938 L 68.835938 135.085938 L 68.835938 80.035156 L 300.34375 80.035156 L 300.34375 63.152344 Z M 300.351562 63.152344 " fill-opacity="1" fill-rule="nonzero"/></g><g clip-path="url(#f1bcc2872c)"><path fill="#00bf63" d="M 134.554688 140.132812 C 134.554688 168.800781 111.3125 192.042969 82.644531 192.042969 C 53.976562 192.042969 30.734375 168.800781 30.734375 140.132812 C 30.734375 111.464844 53.976562 88.222656 82.644531 88.222656 C 111.3125 88.222656 134.554688 111.464844 134.554688 140.132812 " fill-opacity="1" fill-rule="nonzero"/></g><path fill="#ffffff" d="M 82.640625 160.453125 L 82.644531 160.457031 L 74.210938 168.890625 L 74.207031 168.882812 L 65.789062 160.464844 L 65.800781 160.453125 L 46.027344 140.683594 L 54.449219 132.261719 L 74.21875 152.035156 L 111.265625 114.988281 L 119.6875 123.40625 L 82.640625 160.453125 " fill-opacity="1" fill-rule="nonzero"/></svg>